<?xml version="1.0" standalone="no"?><!DOCTYPE svg PUBLIC "-//W3C//DTD SVG 1.1//EN" "http://www.w3.org/Graphics/SVG/1.1/DTD/svg11.dtd"><svg t="1552462126255" class="icon" style="" viewBox="0 0 1024 1024" version="1.1" xmlns="http://www.w3.org/2000/svg" p-id="4519" xmlns:xlink="http://www.w3.org/1999/xlink" width="32" height="32"><defs><style type="text/css"></style></defs><path d="M900.236232 882.259812 723.946157 705.969737c56.18565-61.815881 90.430592-143.933133 90.430592-234.04957 0-192.242396-155.843394-348.084767-348.084767-348.084767S118.206192 279.67777 118.206192 471.920166s155.843394 348.08579 348.084767 348.08579c91.690282 0 175.083597-35.469839 237.254565-93.414553l176.179558 176.179558c5.664 5.664 14.84715 5.664 20.511149 0C905.900232 897.106961 905.900232 887.923812 900.236232 882.259812zM147.213853 471.920166c0-176.221514 142.855592-319.078129 319.078129-319.078129s319.078129 142.856615 319.078129 319.078129S642.513496 790.998295 466.291982 790.998295 147.213853 648.142703 147.213853 471.920166z" p-id="4520"></path><path d="M377.411699 270.308379c-2.066055 0-4.02671 0.438998-5.806239 1.216711l-0.034792-0.074701c-50.347688 23.859407-90.481757 65.753563-112.058169 117.340475l0.072655 0.036839c-0.711198 1.711991-1.107217 3.587712-1.107217 5.557576 0 8.010441 6.493901 14.503319 14.503319 14.503319 5.313006 0 9.945513-2.865257 12.471033-7.127328l0.081864 0.040932c0.096191-0.237407 0.200568-0.470721 0.297782-0.708128 0.378623-0.723477 0.699941-1.480724 0.953721-2.269693 18.729573-43.988864 52.969399-79.777975 95.862301-100.500948 5.418406-2.101871 9.266038-7.352455 9.266038-13.512758C391.915018 276.80228 385.42214 270.308379 377.411699 270.308379z" p-id="4521"></path><path d="M694.560896 480.534358c0-8.010441-6.493901-14.503319-14.503319-14.503319-8.002254 0-14.490016 6.481621-14.502295 14.480806-0.005117 0-0.024559 0.001023-0.024559 0.001023-2.385327 106.516965-89.202625 192.189184-196.163705 192.736653-0.00614 0-0.011256-0.001023-0.017396-0.001023-0.00921 0-0.01842 0.001023-0.028653 0.001023-0.327458 0.002047-0.653893 0.01228-0.982374 0.01228-0.025583 0-0.047072 0.027629-0.070608 0.040932-7.503904 0.554632-13.422707 6.803963-13.422707 14.449084 0 8.010441 6.493901 14.503319 14.503319 14.503319 0.042979 0 0.084934-0.00614 0.127913-0.00614 0 0 0.001023 0.00614 0.001023 0.00614 122.468263-0.604774 221.907019-98.505501 225.015823-220.366943C694.533266 481.441007 694.560896 480.990752 694.560896 480.534358z" p-id="4522"></path></svg>