<?xml version="1.0" standalone="no"?><!DOCTYPE svg PUBLIC "-//W3C//DTD SVG 1.1//EN" "http://www.w3.org/Graphics/SVG/1.1/DTD/svg11.dtd"><svg t="1552355424144" class="icon" style="" viewBox="0 0 1024 1024" version="1.1" xmlns="http://www.w3.org/2000/svg" p-id="6594" xmlns:xlink="http://www.w3.org/1999/xlink" width="128" height="128"><defs><style type="text/css"></style></defs><path d="M512 67C266.6 67 67 266.6 67 512s199.6 445 445 445c245.1-0.3 444.7-199.9 445-445 0-245.4-199.6-445-445-445z m32.5 823.4v-53.6c0-17.9-14.6-32.5-32.5-32.5s-32.5 14.6-32.5 32.5v53.6c-183.6-15.7-330.2-162.3-345.9-345.9h53.6c17.9 0 32.5-14.6 32.5-32.5s-14.6-32.5-32.5-32.5h-53.6c15.7-183.6 162.3-330.2 345.9-345.9v53.6c0 17.9 14.6 32.5 32.5 32.5s32.5-14.6 32.5-32.5v-53.6c183.4 15.9 330 162.5 345.9 345.9h-53.6c-17.9 0-32.5 14.6-32.5 32.5s14.6 32.5 32.5 32.5h53.6c-15.6 183.6-162.3 330.3-345.9 345.9z" fill="#F5973C" p-id="6595"></path><path d="M544.5 498.3V292.2c0-17.9-14.6-32.5-32.5-32.5s-32.5 14.6-32.5 32.5V512c0 8.6 3.6 17.1 9.8 23.1l197.1 194c6.1 6 14.2 9.4 22.8 9.4h0.3c8.7 0 16.8-3.5 23-9.6 12.6-12.7 12.5-33.4-0.2-46L544.5 498.3z" fill="#F5973C" p-id="6596"></path></svg>